<mxfile host="app.diagrams.net" modified="2024-06-15T01:02:21.477Z" agent="Mozilla/5.0 (Macintosh; Intel Mac OS X 10.15; rv:126.0) Gecko/20100101 Firefox/126.0" version="24.5.4" etag="SDRT1vSa8Uptj7ttbyG_" type="github">
  <diagram name="Page-1" id="9osh8bir-5xLKplm5jWT">
    <mxGraphModel>
      <root>
        <mxCell id="0" />
        <mxCell id="1" parent="0" />
      </root>
    </mxGraphModel>
  </diagram>
</mxfile>
